<mxfile host="app.diagrams.net" modified="2022-06-01T04:24:39.601Z" agent="5.0 (Windows NT 10.0; Win64; x64) AppleWebKit/537.36 (KHTML, like Gecko) Chrome/100.0.4896.127 Safari/537.36" etag="oJqaSTBN5rTq_5UFbLvW" version="17.4.6" type="github">
  <diagram id="vnnqjnAMkT5Zu5kiw6o8" name="Page-1">
    <mxGraphModel dx="1038" dy="489" grid="1" gridSize="10" guides="1" tooltips="1" connect="1" arrows="1" fold="1" page="1" pageScale="1" pageWidth="850" pageHeight="1100" math="0" shadow="0">
      <root>
        <mxCell id="0" />
        <mxCell id="1" parent="0" />
        <mxCell id="VrX7lu9NK_rG8wc0C4YF-5" style="edgeStyle=orthogonalEdgeStyle;rounded=0;orthogonalLoop=1;jettySize=auto;html=1;entryX=0.5;entryY=0;entryDx=0;entryDy=0;" edge="1" parent="1" source="VrX7lu9NK_rG8wc0C4YF-1" target="VrX7lu9NK_rG8wc0C4YF-3">
          <mxGeometry relative="1" as="geometry" />
        </mxCell>
        <mxCell id="VrX7lu9NK_rG8wc0C4YF-24" style="edgeStyle=orthogonalEdgeStyle;rounded=0;orthogonalLoop=1;jettySize=auto;html=1;exitX=1;exitY=0.5;exitDx=0;exitDy=0;entryX=0.5;entryY=0;entryDx=0;entryDy=0;fontSize=11;" edge="1" parent="1" source="VrX7lu9NK_rG8wc0C4YF-1" target="VrX7lu9NK_rG8wc0C4YF-12">
          <mxGeometry relative="1" as="geometry" />
        </mxCell>
        <mxCell id="VrX7lu9NK_rG8wc0C4YF-1" value="RFS offload enabled" style="rhombus;whiteSpace=wrap;html=1;fontSize=12;" vertex="1" parent="1">
          <mxGeometry x="342.5" y="150" width="167.5" height="80" as="geometry" />
        </mxCell>
        <mxCell id="VrX7lu9NK_rG8wc0C4YF-8" style="edgeStyle=orthogonalEdgeStyle;rounded=0;orthogonalLoop=1;jettySize=auto;html=1;exitX=0;exitY=0.5;exitDx=0;exitDy=0;entryX=0.5;entryY=0;entryDx=0;entryDy=0;" edge="1" parent="1" source="VrX7lu9NK_rG8wc0C4YF-3" target="VrX7lu9NK_rG8wc0C4YF-11">
          <mxGeometry relative="1" as="geometry">
            <mxPoint x="265" y="440" as="targetPoint" />
          </mxGeometry>
        </mxCell>
        <mxCell id="VrX7lu9NK_rG8wc0C4YF-15" style="edgeStyle=orthogonalEdgeStyle;rounded=0;orthogonalLoop=1;jettySize=auto;html=1;exitX=1;exitY=0.5;exitDx=0;exitDy=0;entryX=0.5;entryY=0;entryDx=0;entryDy=0;" edge="1" parent="1" source="VrX7lu9NK_rG8wc0C4YF-3" target="VrX7lu9NK_rG8wc0C4YF-14">
          <mxGeometry relative="1" as="geometry" />
        </mxCell>
        <mxCell id="VrX7lu9NK_rG8wc0C4YF-3" value="raw frame" style="rhombus;whiteSpace=wrap;html=1;fontSize=12;" vertex="1" parent="1">
          <mxGeometry x="341.25" y="265" width="170" height="70" as="geometry" />
        </mxCell>
        <mxCell id="VrX7lu9NK_rG8wc0C4YF-11" value="build hybrid descriptor" style="rounded=0;whiteSpace=wrap;html=1;strokeColor=#FF0000;fontSize=12;" vertex="1" parent="1">
          <mxGeometry x="210" y="335" width="160" height="40" as="geometry" />
        </mxCell>
        <mxCell id="VrX7lu9NK_rG8wc0C4YF-17" style="edgeStyle=orthogonalEdgeStyle;rounded=0;orthogonalLoop=1;jettySize=auto;html=1;entryX=0.5;entryY=0;entryDx=0;entryDy=0;" edge="1" parent="1" source="VrX7lu9NK_rG8wc0C4YF-14" target="VrX7lu9NK_rG8wc0C4YF-18">
          <mxGeometry relative="1" as="geometry">
            <mxPoint x="600" y="450" as="targetPoint" />
          </mxGeometry>
        </mxCell>
        <mxCell id="VrX7lu9NK_rG8wc0C4YF-14" value="&lt;font style=&quot;font-size: 12px&quot;&gt;build RFS descriptor&lt;/font&gt;" style="rounded=0;whiteSpace=wrap;html=1;fontSize=12;" vertex="1" parent="1">
          <mxGeometry x="510" y="330" width="170" height="40" as="geometry" />
        </mxCell>
        <mxCell id="VrX7lu9NK_rG8wc0C4YF-18" value="build data descriptor" style="rounded=0;whiteSpace=wrap;html=1;fontSize=12;" vertex="1" parent="1">
          <mxGeometry x="510" y="400" width="170" height="40" as="geometry" />
        </mxCell>
        <mxCell id="VrX7lu9NK_rG8wc0C4YF-19" value="No" style="text;html=1;strokeColor=none;fillColor=none;align=center;verticalAlign=middle;whiteSpace=wrap;rounded=0;" vertex="1" parent="1">
          <mxGeometry x="510" y="160" width="60" height="30" as="geometry" />
        </mxCell>
        <mxCell id="VrX7lu9NK_rG8wc0C4YF-20" value="Yes" style="text;html=1;strokeColor=none;fillColor=none;align=center;verticalAlign=middle;whiteSpace=wrap;rounded=0;" vertex="1" parent="1">
          <mxGeometry x="381" y="229" width="60" height="30" as="geometry" />
        </mxCell>
        <mxCell id="VrX7lu9NK_rG8wc0C4YF-21" value="Yes" style="text;html=1;strokeColor=none;fillColor=none;align=center;verticalAlign=middle;whiteSpace=wrap;rounded=0;" vertex="1" parent="1">
          <mxGeometry x="282.5" y="275" width="60" height="30" as="geometry" />
        </mxCell>
        <mxCell id="VrX7lu9NK_rG8wc0C4YF-22" value="No" style="text;html=1;strokeColor=none;fillColor=none;align=center;verticalAlign=middle;whiteSpace=wrap;rounded=0;" vertex="1" parent="1">
          <mxGeometry x="520" y="274" width="60" height="30" as="geometry" />
        </mxCell>
        <mxCell id="VrX7lu9NK_rG8wc0C4YF-12" value="build data descriptor" style="rounded=0;whiteSpace=wrap;html=1;fontSize=12;" vertex="1" parent="1">
          <mxGeometry x="511.25" y="210" width="160" height="40" as="geometry" />
        </mxCell>
        <mxCell id="VrX7lu9NK_rG8wc0C4YF-26" value="" style="endArrow=classic;html=1;rounded=0;fontSize=12;entryX=0.5;entryY=0;entryDx=0;entryDy=0;" edge="1" parent="1" target="VrX7lu9NK_rG8wc0C4YF-1">
          <mxGeometry width="50" height="50" relative="1" as="geometry">
            <mxPoint x="426" y="100" as="sourcePoint" />
            <mxPoint x="450" y="210" as="targetPoint" />
          </mxGeometry>
        </mxCell>
      </root>
    </mxGraphModel>
  </diagram>
</mxfile>
